<?xml version="1.0" standalone="no"?>
<!DOCTYPE svg PUBLIC "-//W3C//DTD SVG 20010904//EN"
 "http://www.w3.org/TR/2001/REC-SVG-20010904/DTD/svg10.dtd">
<svg version="1.0" xmlns="http://www.w3.org/2000/svg"
 width="179.000000pt" height="179.000000pt" viewBox="0 0 179.000000 179.000000"
 preserveAspectRatio="xMidYMid meet">
<metadata>
Created by potrace 1.14, written by Peter Selinger 2001-2017
</metadata>
<g transform="translate(0.000000,179.000000) scale(0.100000,-0.100000)"
fill="#000000" stroke="none">
<path d="M851 1779 c-74 -14 -202 -60 -284 -101 -79 -39 -121 -76 -230 -201
-59 -67 -170 -262 -187 -327 -4 -19 -11 -98 -15 -175 -5 -134 -5 -138 10 -105
10 20 20 85 26 155 9 119 9 121 66 235 35 70 78 137 108 171 27 30 72 81 98
112 40 47 65 65 150 106 56 28 113 53 126 57 22 6 21 3 -10 -23 -19 -16 -71
-55 -115 -86 -97 -68 -138 -111 -192 -203 -22 -38 -52 -84 -66 -103 -14 -19
-35 -63 -46 -97 -12 -35 -26 -66 -31 -70 -18 -11 -39 -77 -39 -123 l0 -46 62
1 c35 1 66 -2 69 -8 3 -5 9 5 13 23 10 52 15 29 6 -31 -4 -30 -8 -46 -9 -35
-1 18 -9 21 -60 23 -100 5 -141 -41 -141 -155 1 -75 57 -193 112 -237 21 -16
40 -27 42 -25 3 3 10 34 15 69 l10 65 -4 -72 c-6 -83 1 -104 60 -193 142 -213
373 -369 547 -370 48 0 70 7 140 44 67 35 95 57 143 114 67 78 136 186 158
247 33 93 36 105 24 105 -7 0 -20 -27 -30 -59 -25 -78 -78 -158 -177 -264 -84
-89 -116 -108 -104 -62 5 20 3 25 -14 25 -22 0 -32 -18 -32 -56 0 -20 -9 -29
-42 -44 -57 -26 -89 -25 -148 5 -50 25 -50 25 -50 75 0 38 -4 50 -15 50 -11 0
-15 -11 -15 -39 l0 -39 -67 36 c-48 27 -77 51 -102 88 -20 27 -54 66 -75 86
l-40 35 -1 158 c-2 152 -1 161 27 232 23 62 27 83 22 128 -8 69 18 185 63 280
18 38 33 79 33 92 0 12 5 25 10 28 6 3 15 26 21 51 10 38 15 44 38 44 15 0 51
15 81 34 40 26 59 32 72 25 28 -15 107 -10 180 11 l68 21 28 -32 c15 -18 33
-42 41 -53 8 -12 44 -52 81 -91 85 -88 138 -167 146 -216 6 -36 8 -37 32 -28
37 14 42 25 42 99 0 61 -3 71 -47 140 -25 41 -64 111 -86 155 -61 125 -65 131
-125 196 -39 42 -76 70 -121 92 -36 17 -60 32 -54 34 7 3 49 -2 94 -11 159
-30 252 -111 312 -273 73 -197 89 -253 100 -350 9 -75 17 -107 30 -120 18 -17
18 -16 13 27 -3 25 -8 77 -12 115 -6 71 -37 183 -78 285 -13 30 -31 76 -40
103 -10 26 -37 73 -61 106 -55 74 -126 116 -230 136 -83 16 -253 18 -324 4z
m-212 -413 c-10 -9 -69 -36 -69 -32 0 7 52 35 64 36 5 0 7 -2 5 -4z"/>
<path d="M1093 1083 c-43 -15 -59 -43 -24 -43 10 0 38 7 61 15 23 8 69 15 101
15 46 0 59 3 59 15 0 20 -138 19 -197 -2z"/>
<path d="M638 1028 c-17 -6 -28 -17 -28 -29 0 -23 7 -23 53 -4 21 9 67 15 107
15 56 0 70 3 70 15 0 12 -16 15 -87 14 -49 0 -100 -5 -115 -11z"/>
<path d="M1403 1005 c-8 -22 2 -408 11 -428 11 -23 36 -4 29 22 -4 16 2 17 55
13 l60 -4 28 43 c41 65 44 143 9 249 -19 57 -34 86 -52 97 -33 22 -132 27
-140 8z"/>
<path d="M1110 994 c0 -9 16 -32 35 -50 28 -28 42 -34 78 -34 28 0 53 7 67 18
20 16 21 23 13 48 -10 29 -10 29 -101 32 -81 2 -92 1 -92 -14z m75 -39 c0 -29
-3 -30 -27 -8 -24 22 -23 33 5 33 17 0 22 -6 22 -25z m100 0 c0 -11 -7 -21
-15 -23 -10 -2 -15 6 -15 23 0 17 5 25 15 23 8 -2 15 -12 15 -23z"/>
<path d="M660 951 c-18 -13 -7 -35 33 -64 31 -24 116 -34 146 -18 25 14 28 53
5 71 -19 17 -164 25 -184 11z m95 -50 l0 -29 -38 21 c-39 22 -35 37 13 37 21
0 25 -5 25 -29z m95 4 c0 -8 -4 -17 -10 -20 -6 -4 -10 5 -10 20 0 15 4 24 10
20 6 -3 10 -12 10 -20z"/>
<path d="M894 768 c11 -69 9 -105 -9 -142 -9 -19 -15 -47 -13 -63 l3 -28 111
-3 c138 -3 164 5 164 51 0 21 -8 41 -19 51 -11 10 -26 48 -36 92 -11 50 -21
74 -31 74 -18 0 -18 -23 2 -107 8 -37 25 -78 36 -90 l21 -23 -31 0 c-17 0 -34
-4 -37 -10 -10 -16 -45 -12 -45 6 0 13 -9 15 -46 12 l-46 -3 7 30 c16 72 17
107 4 150 -18 60 -44 62 -35 3z"/>
<path d="M1609 638 c-12 -23 -15 -49 -12 -81 3 -25 3 -57 -1 -71 -9 -35 -102
-145 -133 -157 -26 -10 -27 -32 -1 -37 21 -4 111 80 142 133 25 42 26 52 24
146 l-3 102 -16 -35z"/>
<path d="M768 400 c-44 -28 -48 -33 -48 -70 0 -29 4 -40 15 -40 9 0 15 9 15
25 0 19 11 32 50 56 50 31 66 59 33 59 -10 0 -39 -14 -65 -30z"/>
<path d="M1090 416 c0 -8 11 -23 24 -34 21 -16 24 -25 19 -61 -4 -31 -1 -46
12 -61 27 -30 49 -26 40 8 -4 15 -9 49 -12 76 -4 34 -12 55 -27 67 -25 22 -56
24 -56 5z"/>
<path d="M835 379 c-5 -5 -19 -16 -30 -24 -16 -12 -17 -16 -6 -24 50 -33 282
-41 302 -10 11 17 11 30 1 46 -10 15 -253 27 -267 12z"/>
</g>
</svg>
